<svg width="162" height="161" viewBox="0 0 162 161" fill="none" xmlns="http://www.w3.org/2000/svg">
<rect x="161.616" y="128.951" width="31.5" height="160.3" transform="rotate(90 161.616 128.951)" stroke="white" stroke-opacity="0.3" stroke-width="0.7"/>
<rect x="161.616" y="25.3512" width="31.5" height="160.3" transform="rotate(90 161.616 25.3512)" stroke="white" stroke-opacity="0.3" stroke-width="0.7"/>
<rect x="1.31582" y="25.1813" width="31.5" height="135.1" stroke="white" stroke-opacity="0.3" stroke-width="0.7"/>
<rect x="65.7158" y="25.1813" width="31.5" height="135.1" stroke="white" stroke-opacity="0.3" stroke-width="0.7"/>
<rect x="130.116" y="25.1813" width="31.5" height="135.1" stroke="white" stroke-opacity="0.3" stroke-width="0.7"/>
<path d="M144.798 42.1631L142.446 38.8311H143.958L145.582 41.3791L147.248 38.8311H148.718L146.38 42.1631L148.872 45.8311H147.346L145.582 43.0591L143.79 45.8311H142.292L144.798 42.1631Z" fill="white"/>
<path d="M16.5073 42.3327L14.1553 39.0007H15.6673L17.2913 41.5487L18.9573 39.0007H20.4273L18.0893 42.3327L20.5813 46.0007H19.0553L17.2913 43.2287L15.4993 46.0007H14.0013L16.5073 42.3327Z" fill="white"/>
<path d="M16.5074 146.311L14.1554 142.979H15.6674L17.2914 145.527L18.9574 142.979H20.4274L18.0894 146.311L20.5814 149.979H19.0554L17.2914 147.207L15.4994 149.979H14.0014L16.5074 146.311Z" fill="white"/>
<path d="M144.798 146.311L142.446 142.979H143.958L145.582 145.527L147.248 142.979H148.718L146.38 146.311L148.872 149.979H147.346L145.582 147.207L143.79 149.979H142.292L144.798 146.311Z" fill="white"/>
<path d="M0.96521 25.2108H32.8152" stroke="white" stroke-width="0.7"/>
<path d="M95.3164 56.501C94.3793 58.1673 93.5377 59.891 92.7727 61.6531C85.5051 60.5614 78.1036 60.5614 70.8169 61.6531C70.071 59.891 69.2104 58.1673 68.2732 56.501C61.4455 57.6693 54.7899 59.7187 48.4786 62.6107C35.9706 81.1699 32.5854 99.2501 34.2685 117.081C41.5934 122.502 49.7982 126.639 58.5385 129.282C60.5084 126.639 62.2488 123.823 63.7405 120.893C60.91 119.839 58.1751 118.518 55.5549 116.986C56.2434 116.488 56.9128 115.971 57.5631 115.473C72.9207 122.712 90.7072 122.712 106.084 115.473C106.734 116.009 107.404 116.526 108.092 116.986C105.472 118.537 102.737 119.839 99.8873 120.912C101.379 123.842 103.12 126.658 105.089 129.301C113.83 126.658 122.034 122.54 129.359 117.12C131.348 96.4347 125.955 78.5076 115.111 62.6299C108.819 59.7378 102.163 57.6885 95.3355 56.5393L95.3164 56.501ZM65.8826 106.107C61.1586 106.107 57.2379 101.817 57.2379 96.5113C57.2379 91.2059 61.0056 86.8966 65.8634 86.8966C70.7213 86.8966 74.5846 91.2251 74.5081 96.5113C74.4316 101.797 70.7021 106.107 65.8826 106.107ZM97.7453 106.107C93.0022 106.107 89.1198 101.817 89.1198 96.5113C89.1198 91.2059 92.8875 86.8966 97.7453 86.8966C102.603 86.8966 106.447 91.2251 106.371 96.5113C106.294 101.797 102.565 106.107 97.7453 106.107Z" fill="white"/>
<path d="M11.6125 3.71698L9.12051 5.43898V4.10898L11.8645 2.19098H12.9005V11.501H11.6125V3.71698ZM18.7046 0.300976H19.9646L15.9046 13.181H14.6446L18.7046 0.300976ZM23.6969 11.711C23.2022 11.711 22.7496 11.6503 22.3389 11.529C21.9282 11.417 21.5316 11.2396 21.1489 10.997V9.63898C21.4009 9.89098 21.7229 10.0963 22.1149 10.255C22.5069 10.4136 22.9782 10.493 23.5289 10.493C24.2009 10.493 24.7236 10.339 25.0969 10.031C25.4796 9.71364 25.6709 9.28898 25.6709 8.75698C25.6709 8.31831 25.5122 7.95898 25.1949 7.67898C24.8869 7.38964 24.3736 7.24498 23.6549 7.24498H21.7509L21.9329 6.09698H23.5989C24.2336 6.09698 24.6909 5.96164 24.9709 5.69098C25.2602 5.42031 25.4049 5.05164 25.4049 4.58498C25.4049 4.15564 25.2416 3.81964 24.9149 3.57698C24.5882 3.32498 24.1076 3.19898 23.4729 3.19898C22.9316 3.19898 22.4696 3.28298 22.0869 3.45098C21.7136 3.61898 21.4149 3.81964 21.1909 4.05298V2.73698C21.9376 2.23298 22.7682 1.98098 23.6829 1.98098C24.2989 1.98098 24.8356 2.08364 25.2929 2.28898C25.7502 2.49431 26.1002 2.78364 26.3429 3.15698C26.5949 3.52098 26.7209 3.93631 26.7209 4.40298C26.7209 4.92564 26.5762 5.38298 26.2869 5.77498C25.9976 6.16698 25.5822 6.40498 25.0409 6.48898C25.6662 6.59164 26.1516 6.86231 26.4969 7.30098C26.8422 7.73031 27.0149 8.22964 27.0149 8.79898C27.0149 9.34964 26.8749 9.84898 26.5949 10.297C26.3242 10.7356 25.9369 11.081 25.4329 11.333C24.9289 11.585 24.3502 11.711 23.6969 11.711Z" fill="white"/>
</svg>
